# xmcd
#
# Track frame offsets:
#	150
#	11733
#	25091
#	39174
#	53443
#	65108
#	80247
#	90476
#	109318
#	124185
#	137996
#	155133
#	170237
#	185752
#	200732
#	213534
#	230499
#	242874
#	257794
#	267232
#	282132
#	296050
#	310499
#	321287
#	337312
#
# Disc length: 4665 seconds
#
# Revision: 0
# Processed by: cddbd v1.5.2PL0 Copyright (c) Steve Scherf et al.
# Submitted via: EasyCDDAExtractor 2010.6.0.0
#
DISCID=93123719
DTITLE=George Strait - 50 Number Ones
DYEAR=2004
DGENRE=Country
TTITLE0=Blue Clear Sky
TTITLE1=Carried Away
TTITLE2=Carrying Your Love With Me
TTITLE3=Check Yes Or No
TTITLE4=Easy Come, Easy Go
TTITLE5=Go On
TTITLE6=Heartland
TTITLE7=I Can Still Make Cheyenne
TTITLE8=I Just Want To Dance With You
TTITLE9=I KnowShe Still Loves Me
TTITLE10=I'd Like To HaveThat One Back
TTITLE11=Lead On
TTITLE12=Living And Living Well
TTITLE13=One Night At A Time
TTITLE14=Round That Way
TTITLE15=Run
TTITLE16=She'll Leave You With A Smile
TTITLE17=The Best Day
TTITLE18=The Big One
TTITLE19=The Man In Love With You
TTITLE20=Today My World Slipped Away
TTITLE21=True
TTITLE22=We Really Shouldn't Be Doing This
TTITLE23=Write This Down
TTITLE24=You Can't Make A Heart Love Someone
EXTD=
EXTT0=
EXTT1=
EXTT2=
EXTT3=
EXTT4=
EXTT5=
EXTT6=
EXTT7=
EXTT8=
EXTT9=
EXTT10=
EXTT11=
EXTT12=
EXTT13=
EXTT14=
EXTT15=
EXTT16=
EXTT17=
EXTT18=
EXTT19=
EXTT20=
EXTT21=
EXTT22=
EXTT23=
EXTT24=
PLAYORDER=
